<?xml version="1.0" standalone="no"?>
<!DOCTYPE svg PUBLIC "-//W3C//DTD SVG 20010904//EN"
 "http://www.w3.org/TR/2001/REC-SVG-20010904/DTD/svg10.dtd">
<svg version="1.0" xmlns="http://www.w3.org/2000/svg"
 width="663.000000pt" height="663.000000pt" viewBox="0 0 663.000000 663.000000"
 preserveAspectRatio="xMidYMid meet">
<metadata>
Created by potrace 1.11, written by Peter Selinger 2001-2013
</metadata>
<g transform="translate(0.000000,663.000000) scale(0.100000,-0.100000)"
fill="#000000" stroke="none">
<path d="M1878 4719 c-24 -18 -46 -70 -39 -94 9 -29 12 -123 4 -128 -5 -3 -24
8 -43 24 -22 20 -42 29 -59 27 -41 -5 -39 -41 3 -88 20 -22 36 -44 36 -49 0
-14 -49 -70 -71 -82 -11 -5 -61 -12 -112 -15 -142 -7 -217 -40 -217 -96 0 -33
33 -39 96 -18 l59 20 -39 -39 c-42 -43 -43 -71 -4 -71 26 0 48 14 97 59 37 35
51 39 51 15 0 -22 -38 -74 -55 -74 -7 0 -45 -16 -83 -36 -122 -63 -211 -170
-228 -272 -5 -30 -3 -40 9 -45 17 -6 67 37 67 58 0 7 9 24 21 39 24 30 55 36
44 9 -14 -38 -18 -123 -5 -138 29 -35 74 -6 85 55 15 87 29 121 57 145 36 30
40 30 63 5 11 -12 18 -36 18 -62 0 -103 -52 -195 -153 -270 -128 -95 -137
-105 -143 -145 -12 -72 42 -81 108 -17 19 18 43 38 55 44 18 9 20 8 20 -13 0
-14 -9 -45 -20 -70 -24 -54 -19 -90 15 -105 58 -27 93 20 100 135 7 129 47
227 120 296 28 27 47 37 65 35 25 -3 25 -5 25 -89 0 -97 15 -139 50 -139 30 0
40 15 59 84 21 82 42 91 94 39 13 -13 27 -24 32 -24 6 -1 16 -2 23 -3 18 -3
67 23 112 59 22 18 49 37 60 42 35 17 91 7 176 -33 46 -22 88 -39 93 -40 30
-1 100 75 95 103 -3 15 -27 45 -87 107 -99 103 -116 150 -98 285 9 72 35 127
81 175 42 42 120 83 175 91 97 13 120 24 120 55 0 26 -43 56 -90 64 -38 6 -47
17 -40 51 20 94 6 142 -35 123 -26 -12 -40 -35 -55 -94 -12 -47 -50 -99 -156
-209 -72 -74 -117 -50 -129 71 -10 96 -24 136 -61 171 -30 28 -38 31 -54 21
-23 -15 -27 -36 -24 -134 2 -90 -4 -108 -45 -122 -25 -9 -34 -7 -56 10 -43 33
-58 80 -79 237 -9 63 -63 93 -108 60z"/>
<path d="M2745 3662 c-68 -11 -101 -63 -83 -128 11 -42 63 -114 81 -114 6 0
20 -8 31 -19 45 -40 134 -53 185 -26 81 42 41 175 -74 247 -44 27 -109 46
-140 40z"/>
<path d="M5020 3626 c-85 -22 -173 -96 -203 -168 -18 -44 -45 -153 -52 -208
-10 -91 -16 -100 -87 -136 -52 -26 -56 -37 -37 -95 18 -52 24 -54 76 -22 50
31 56 31 150 12 29 -6 55 -10 58 -9 3 0 18 -6 33 -13 15 -7 45 -15 67 -16 22
-1 52 -3 66 -5 14 -2 61 3 105 11 81 13 119 37 108 67 -9 23 -74 34 -114 19
-95 -33 -157 8 -97 65 40 38 105 61 141 50 59 -19 76 -20 90 -8 19 15 10 37
-17 46 -20 6 -20 7 4 20 13 7 32 13 42 14 62 1 116 61 87 95 -22 27 -88 9
-235 -65 -77 -39 -152 -70 -167 -70 -35 0 -61 27 -54 54 3 12 6 24 6 27 0 10
51 27 98 32 51 6 94 41 90 72 -2 15 -10 20 -33 19 -16 -1 -40 -5 -52 -9 -34
-11 -28 10 6 25 56 23 81 80 35 80 -24 0 -80 -29 -106 -55 -31 -30 -87 -58
-104 -51 -8 3 -14 14 -14 25 0 40 23 69 85 105 57 33 95 44 163 45 12 1 25 8
29 17 15 40 -72 56 -167 30z"/>
<path d="M3070 3397 c-34 -17 -90 -101 -83 -126 10 -38 84 -102 177 -153 58
-32 113 -8 146 66 17 36 17 42 2 84 -12 32 -31 55 -67 83 -78 59 -125 71 -175
46z"/>
<path d="M3470 3192 c-78 -24 -112 -66 -103 -126 7 -42 20 -65 56 -95 64 -54
162 -81 222 -61 105 35 99 156 -11 233 -42 29 -136 58 -164 49z"/>
<path d="M4392 3075 c-65 -20 -111 -55 -118 -90 -6 -34 -2 -74 9 -92 5 -7 5
-13 1 -13 -4 0 1 -9 12 -21 17 -19 27 -20 99 -16 129 8 159 20 180 71 11 25
12 43 4 72 -10 37 -51 86 -76 91 -50 10 -74 10 -111 -2z"/>
<path d="M3863 3013 c-171 -50 -143 -190 43 -219 114 -18 209 2 267 54 31 29
33 50 12 96 -33 70 -198 105 -322 69z"/>
</g>
</svg>
